<svg width="802" height="602" xmlns="http://www.w3.org/2000/svg">
 <!-- Created with Method Draw - http://github.com/duopixel/Method-Draw/ -->

 <g>
  <title>background</title>
  <rect fill="#eceae7" id="canvas_background" height="604" width="804" y="-1" x="-1"/>
 </g>
 <g>
  <title>Layer 1</title>
  <g stroke="null" id="svg_14">
   <g stroke="null" transform="matrix(0.8978655691862846,0,0,0.9074601990393076,-2260.0896008132845,-1765.7592064580338) " id="svg_4" fill-rule="evenodd" fill="none">
    <g stroke="null" id="svg_5" fill="#D5D0CD">
     <g stroke="null" id="svg_6">
      <path stroke="null" id="svg_7" d="m3174.253582,2301.224022l-2.31,1.41c-11.167,6.818 -23.313,10.474 -34.346,10.47c-23.61,-0.09 -39.163,-14.083 -39.227,-34.453c0.03,-19.918 16.27,-34.663 38.633,-34.718c11.387,0.01 21.703,2.954 33.962,9.672l2.251,1.24l0,-18.19l-0.962,-0.377c-13.824,-5.458 -24.53,-7.89 -35.103,-7.884c-16.346,-0.006 -30.533,5.394 -40.637,14.557c-10.105,9.163 -16.106,22.102 -16.099,36.953c0.008,10.348 4.279,22.48 13.42,32.105c9.121,9.628 23.165,16.648 42.43,16.639l0.063,0c15.98,0 27.062,-3.563 37.074,-8.492l0.851,-0.414l0,-18.518zm-115.556,44.144l144.195,0l0,-135.697l-144.195,0l0,135.697z"/>
      <path stroke="null" id="svg_8" d="m3001.634582,2299.639022c0.041,-12.33 -8.171,-21.696 -21.308,-25.3c3.544,-1.809 6.35,-4.023 8.404,-6.727c2.75,-3.622 4.061,-8.064 4.046,-13.235c0.015,-6.359 -2.486,-12.839 -7.858,-17.687c-5.372,-4.847 -13.526,-7.997 -24.654,-7.991l-30.737,0l0,97.728l36.073,0c12.87,0 21.906,-3.482 27.722,-8.65c5.818,-5.155 8.32,-11.91 8.312,-18.138zm-109.937,45.73l144.197,0l0,-135.698l-144.197,0l0,135.697l0,0.001z"/>
      <path stroke="null" id="svg_9" d="m2834.634582,2299.639022c0.041,-12.33 -8.171,-21.696 -21.308,-25.3c3.544,-1.809 6.35,-4.023 8.404,-6.727c2.75,-3.622 4.061,-8.064 4.046,-13.235c0.015,-6.359 -2.486,-12.839 -7.858,-17.687c-5.372,-4.847 -13.526,-7.997 -24.654,-7.991l-30.737,0l0,97.728l36.073,0c12.87,0 21.906,-3.482 27.722,-8.65c5.818,-5.155 8.32,-11.91 8.312,-18.138zm-109.937,45.73l144.197,0l0,-135.698l-144.197,0l0,135.697l0,0.001z"/>
      <path stroke="null" id="svg_10" d="m2983.359582,2297.869022c-0.013,3.229 -1.007,6.475 -3.896,9.011c-2.884,2.537 -7.873,4.463 -16.133,4.463l-16.633,0l0,-26.672l15.893,0c7.411,0 12.67,1.502 15.965,3.85c3.289,2.362 4.776,5.463 4.804,9.348"/>
      <path stroke="null" id="svg_11" d="m2816.359582,2297.869022c-0.013,3.229 -1.007,6.475 -3.896,9.011c-2.884,2.537 -7.874,4.463 -16.133,4.463l-16.633,0l0,-26.672l15.892,0c7.412,0 12.672,1.502 15.966,3.85c3.289,2.362 4.776,5.463 4.804,9.348"/>
      <path stroke="null" id="svg_12" d="m2969.883582,2265.461022c3.096,-2.237 4.59,-5.386 4.613,-10.124c-0.015,-3.25 -0.943,-6.033 -3.281,-8.111c-2.346,-2.078 -6.33,-3.555 -12.754,-3.555l-11.764,0l0,25.275l8.076,0c6.988,0.004 11.998,-1.243 15.11,-3.486"/>
      <path stroke="null" id="svg_13" d="m2802.883582,2265.461022c3.096,-2.237 4.59,-5.386 4.613,-10.124c-0.015,-3.25 -0.943,-6.033 -3.282,-8.111c-2.345,-2.078 -6.329,-3.555 -12.753,-3.555l-11.764,0l0,25.275l8.076,0c6.988,0.004 11.998,-1.243 15.11,-3.486"/>
     </g>
    </g>
   </g>
  </g>
 </g>
</svg>