<?xml version="1.0" encoding="UTF-8"?><svg width="479" height="136" xmlns="http://www.w3.org/2000/svg"><g fill="none" fill-rule="evenodd"><g fill="#D5D0CD"><g><path d="M449.556 91.553l-2.31 1.41c-11.167 6.818-23.313 10.474-34.346 10.47-23.61-.09-39.163-14.083-39.227-34.453.03-19.918 16.27-34.663 38.633-34.718 11.387.01 21.703 2.954 33.962 9.672l2.251 1.24v-18.19l-.962-.377c-13.824-5.458-24.53-7.89-35.103-7.884-16.346-.006-30.533 5.394-40.637 14.557-10.105 9.163-16.106 22.102-16.099 36.953.008 10.348 4.279 22.48 13.42 32.105 9.121 9.628 23.165 16.648 42.43 16.639h.063c15.98 0 27.062-3.563 37.074-8.492l.851-.414V91.553zM334 135.697h144.195V0H334v135.697z"/><path d="M276.937 89.968c.041-12.33-8.171-21.696-21.308-25.3 3.544-1.809 6.35-4.023 8.404-6.727 2.75-3.622 4.061-8.064 4.046-13.235.015-6.359-2.486-12.839-7.858-17.687-5.372-4.847-13.526-7.997-24.654-7.991H204.83v97.728h36.073c12.87 0 21.906-3.482 27.722-8.65 5.818-5.155 8.32-11.91 8.312-18.138zM167 135.698h144.197V0H167v135.697z"/><path d="M109.937 89.968c.041-12.33-8.171-21.696-21.308-25.3 3.544-1.809 6.35-4.023 8.404-6.727 2.75-3.622 4.061-8.064 4.046-13.235.015-6.359-2.486-12.839-7.858-17.687-5.372-4.847-13.526-7.997-24.654-7.991H37.83v97.728h36.073c12.87 0 21.906-3.482 27.722-8.65 5.818-5.155 8.32-11.91 8.312-18.138zM0 135.698h144.197V0H0v135.697z"/><path d="M258.662 88.198c-.013 3.229-1.007 6.475-3.896 9.011-2.884 2.537-7.873 4.463-16.133 4.463H222V75h15.893c7.411 0 12.67 1.502 15.965 3.85 3.289 2.362 4.776 5.463 4.804 9.348"/><path d="M91.662 88.198c-.013 3.229-1.007 6.475-3.896 9.011-2.884 2.537-7.874 4.463-16.133 4.463H55V75h15.892c7.412 0 12.672 1.502 15.966 3.85 3.289 2.362 4.776 5.463 4.804 9.348"/><path d="M245.186 55.79c3.096-2.237 4.59-5.386 4.613-10.124-.015-3.25-.943-6.033-3.281-8.111-2.346-2.078-6.33-3.555-12.754-3.555H222v25.275h8.076c6.988.004 11.998-1.243 15.11-3.486"/><path d="M78.186 55.79c3.096-2.237 4.59-5.386 4.613-10.124-.015-3.25-.943-6.033-3.282-8.111C77.172 35.477 73.188 34 66.764 34H55v25.275h8.076c6.988.004 11.998-1.243 15.11-3.486"/></g></g></g></svg>
